HIERARCHY
ROOT Hips
{
    OFFSET 0.000000 0.000000 0.000000
    CHANNELS 6 Xposition Yposition Zposition Zrotation Xrotation Yrotation
    JOINT Spine
    {
        OFFSET -0.000000 8.359812 0.000000
        CHANNELS 3 Zrotation Xrotation Yrotation
        JOINT Spine1
        {
            OFFSET -0.000000 28.141317 0.000000
            CHANNELS 3 Zrotation Xrotation Yrotation
            JOINT Neck
            {
                OFFSET -0.000000 28.025745 2.547795
                CHANNELS 3 Zrotation Xrotation Yrotation
                JOINT Head
                {
                    OFFSET -0.000000 14.272848 -2.038978
                    CHANNELS 3 Zrotation Xrotation Yrotation
                    End Site
                    {
                        OFFSET -0.000000 25.487228 0.000000
                    }
                }
            }
            JOINT LeftShoulder
            {
                OFFSET 4.059574 26.120710 -0.180480
                CHANNELS 3 Zrotation Xrotation Yrotation
                JOINT LeftArm
                {
                    OFFSET 11.584161 0.000000 0.000000
                    CHANNELS 3 Zrotation Xrotation Yrotation
                    JOINT LeftForeArm
                    {
                        OFFSET 30.766815 0.000000 0.000000
                        CHANNELS 3 Zrotation Xrotation Yrotation
                        JOINT LeftHand
                        {
                            OFFSET 29.436810 0.000000 0.000000
                            CHANNELS 3 Zrotation Xrotation Yrotation
                            End Site
                            {
                                OFFSET 15.292337 0.000000 0.000000
                            }
                        }
                    }
                }
            }
            JOINT RightShoulder
            {
                OFFSET -4.095355 26.120710 -0.180480
                CHANNELS 3 Zrotation Xrotation Yrotation
                JOINT RightArm
                {
                    OFFSET -11.584161 0.000000 0.000000
                    CHANNELS 3 Zrotation Xrotation Yrotation
                    JOINT RightForeArm
                    {
                        OFFSET -30.766815 0.000000 0.000000
                        CHANNELS 3 Zrotation Xrotation Yrotation
                        JOINT RightHand
                        {
                            OFFSET -29.436810 0.000000 0.000000
                            CHANNELS 3 Zrotation Xrotation Yrotation
                            End Site
                            {
                                OFFSET -15.292337 0.000000 0.000000
                            }
                        }
                    }
                }
            }
        }
    }
    JOINT LeftUpLeg
    {
        OFFSET 10.194892 0.000000 0.000000
        CHANNELS 3 Zrotation Xrotation Yrotation
        JOINT LeftLeg
        {
            OFFSET -0.000000 -32.520012 0.000000
            CHANNELS 3 Zrotation Xrotation Yrotation
            JOINT LeftFoot
            {
                OFFSET -0.000000 -49.106510 0.000000
                CHANNELS 3 Zrotation Xrotation Yrotation
                JOINT LeftToeBase
                {
                    OFFSET -0.000000 -6.626679 15.292337
                    CHANNELS 3 Zrotation Xrotation Yrotation
                    End Site
                    {
                        OFFSET -0.000000 0.000000 4.077957
                    }
                }
            }
        }
    }
    JOINT RightUpLeg
    {
        OFFSET -10.194892 0.000000 0.000000
        CHANNELS 3 Zrotation Xrotation Yrotation
        JOINT RightLeg
        {
            OFFSET -0.000000 -32.520012 0.000000
            CHANNELS 3 Zrotation Xrotation Yrotation
            JOINT RightFoot
            {
                OFFSET -0.000000 -49.106510 0.000000
                CHANNELS 3 Zrotation Xrotation Yrotation
                JOINT RightToeBase
                {
                    OFFSET -0.000000 -6.626679 15.292337
                    CHANNELS 3 Zrotation Xrotation Yrotation
                    End Site
                    {
                        OFFSET -0.000000 0.000000 4.077957
                    }
                }
            }
        }
    }
}
MOTION
Frames:    7
Frame Time:    0.008333
-30.819916    87.933876    54.986687    -3.604256    0.077832    85.058403    1.828015    -9.267956    2.843172    6.549344    13.499194    1.918975    6.652615    14.900565    14.127308    -16.230747    -12.550821    10.607759    9.318481    0.946993    1.856967    -93.553070    37.780434    16.410536    2.347337    2.736616    -25.184334    -9.444169    3.250421    0.118110    -14.230619    -0.074177    -1.558230    73.942451    52.674782    8.152426    -6.512800    -13.515765    26.737164    -3.297814    -11.873468    -4.654665    19.788946    -50.845886    1.836181    -61.846149    60.308788    42.647800    -1.214546    -15.917902    23.012739    0.000000    0.000000    0.000000    -1.396149    -0.369913    -0.933007    5.042457    -0.102419    2.841887    -2.771593    -3.647194    -5.187377    0.000000    0.000000    0.000000    
-30.716640    87.929977    54.912411    -3.667070    0.139362    84.849556    1.998340    -9.317883    2.888672    6.268660    13.327549    1.992674    6.623617    15.171983    14.264807    -16.499439    -12.640886    10.689791    9.199064    0.999036    2.010125    -93.668480    37.646954    17.051708    2.061328    3.054623    -24.936701    -9.511310    3.502346    0.086763    -14.287394    -0.062745    -1.393620    73.938835    53.408211    8.274043    -6.549425    -13.773068    26.819315    -3.341020    -12.124780    -4.394791    18.817284    -49.715973    1.516488    -58.083050    60.125717    39.320225    -0.645134    -15.981341    23.587891    0.000000    0.000000    0.000000    -1.506925    -0.371620    -0.805418    5.046271    -0.150302    2.818189    -2.719328    -3.695995    -5.086174    0.000000    0.000000    0.000000    
-30.608240    87.934204    54.831337    -3.753790    0.217487    84.644142    2.133508    -9.418341    2.959940    5.992046    13.148789    2.092904    6.634496    15.292959    14.331464    -16.697060    -12.489718    10.739241    9.128389    1.057629    2.094276    -93.784691    37.516499    17.572571    1.872276    3.430054    -24.626490    -9.992453    3.817863    0.228378    -14.274338    -0.172240    -1.142519    74.113266    54.115879    8.026740    -6.547099    -14.038260    27.053820    -3.397501    -12.372005    -4.543962    17.845858    -48.551796    1.133697    -54.336334    59.762440    35.840382    -0.344359    -15.895910    24.138733    0.000000    0.000000    0.000000    -1.658862    -0.408242    -0.714637    5.081695    -0.171960    2.859375    -2.637707    -3.757350    -5.035137    0.000000    0.000000    0.000000    
-30.493975    87.927895    54.761402    -3.820186    0.259472    84.417061    2.251483    -9.512464    3.041088    5.789516    13.002035    2.193408    6.558085    15.411028    14.357565    -16.747406    -12.415362    10.772749    9.052478    1.052478    2.141551    -94.019196    37.381783    18.196592    1.756590    3.828926    -24.361818    -10.148154    4.175667    0.354126    -14.331943    -0.182860    -1.101167    74.064659    54.819660    8.107110    -6.638210    -13.960948    27.187563    -2.988459    -12.285707    -4.340166    16.938015    -47.266827    0.902263    -50.398552    59.245991    32.315067    -0.043049    -15.694964    24.559202    0.000000    0.000000    0.000000    -1.759374    -0.434098    -0.615740    5.096378    -0.166359    3.010684    -2.577326    -3.818549    -5.052906    0.000000    0.000000    0.000000    
-30.358229    87.914970    54.697754    -3.841403    0.287520    84.161552    2.386619    -9.559247    3.071342    5.583018    12.830370    2.243495    6.245550    15.559490    14.445641    -16.549099    -12.442632    10.921898    8.917227    1.114990    2.291630    -94.144203    37.309845    18.768274    1.644619    4.183141    -24.093761    -10.445242    4.532357    0.006675    -14.467871    -0.140326    -1.043195    73.921806    55.666683    8.406979    -6.679534    -13.911048    27.287710    -3.172263    -12.214324    -4.284121    16.119808    -45.815601    0.683339    -46.629578    58.553047    28.174143    0.226849    -15.501307    25.570024    0.000000    0.000000    0.000000    -1.840049    -0.410915    -0.472023    5.100183    -0.157986    2.999996    -2.554674    -3.890984    -4.921143    0.000000    0.000000    0.000000    
-30.200907    87.901596    54.628193    -3.809609    0.307232    83.910812    2.543746    -9.593470    3.063827    5.353563    12.707370    2.253761    5.914053    15.554687    14.599961    -16.232718    -12.243277    11.191815    8.739201    1.183439    2.467075    -94.136902    37.162888    19.263336    1.508230    4.648077    -23.848764    -10.828111    4.991629    -0.278695    -14.521628    -0.177865    -0.950028    73.705223    56.513275    8.687549    -6.779537    -13.755609    27.349037    -2.714909    -12.048120    -4.234509    15.203341    -44.141125    0.319062    -42.774498    57.377460    24.293533    0.613517    -14.944119    26.457050    0.000000    0.000000    0.000000    -1.930844    -0.335873    -0.391024    5.117161    -0.115779    3.060895    -2.385371    -4.040345    -4.857508    0.000000    0.000000    0.000000    
-30.032652    87.881699    54.565506    -3.766686    0.292561    83.641365    2.702015    -9.610373    3.072439    5.133932    12.517200    2.281812    5.913505    15.861212    14.710448    -16.508989    -12.259861    11.254593    8.567810    1.268408    2.567686    -94.184158    37.012173    19.801756    1.396225    4.993851    -23.714104    -11.077515    5.315492    -0.309097    -14.548890    -0.155998    -0.841203    73.498184    57.084038    8.952394    -6.744205    -13.456837    27.455130    -2.689650    -11.751320    -4.185868    14.347026    -42.336452    0.045480    -38.902264    56.040363    20.354939    0.202007    -14.576927    26.882647    0.000000    0.000000    0.000000    -1.967335    -0.261541    -0.309860    5.108151    -0.044906    3.091867    -2.410649    -4.126170    -4.654113    0.000000    0.000000    0.000000    
